<svg xmlns="http://www.w3.org/2000/svg" viewBox="0 0 48 48" fill="none">
  <defs>
    <linearGradient id="flaskGradMark" x1="0%" y1="0%" x2="100%" y2="100%">
      <stop offset="0%" stop-color="#8B5CF6" />
      <stop offset="100%" stop-color="#7C3AED" />
    </linearGradient>
    <linearGradient id="liquidGradMark" x1="0%" y1="0%" x2="0%" y2="100%">
      <stop offset="0%" stop-color="#A78BFA" />
      <stop offset="100%" stop-color="#7C3AED" />
    </linearGradient>
  </defs>
  <!-- Flask Body -->
  <path d="M 20 8 L 20 16 L 10 34 C 8 38 11 42 16 42 L 32 42 C 37 42 40 38 38 34 L 28 16 L 28 8" 
        stroke="url(#flaskGradMark)" stroke-width="2.5" stroke-linecap="round" stroke-linejoin="round" fill="none" />
  <line x1="17" y1="8" x2="31" y2="8" stroke="#A78BFA" stroke-width="2.5" stroke-linecap="round" />
  <!-- Liquid -->
  <path d="M 13 33 Q 19 30 25 32 T 35 33 C 36.5 36 35 40 32 40 L 16 40 C 13 40 11.5 36 13 33 Z" 
        fill="url(#liquidGradMark)" opacity="0.9" />
  <!-- Bubbles -->
  <circle cx="24" cy="18" r="1.8" fill="#DDD6FE" />
  <circle cx="21" cy="11" r="2.2" fill="#A78BFA" />
  <circle cx="27" cy="4" r="1.5" fill="#EDE9FE" />
</svg>
